<mxfile host="app.diagrams.net" modified="2024-02-20T10:13:13.601Z" agent="Mozilla/5.0 (Windows NT 10.0; Win64; x64) AppleWebKit/537.36 (KHTML, like Gecko) Chrome/121.0.0.0 Safari/537.36" etag="tFw9anz5ZZ5oBXGigFdu" version="23.1.5" type="device">
  <diagram name="Page-1" id="vj-aX3OEKdZCapaSHSW7">
    <mxGraphModel dx="2537" dy="925" grid="1" gridSize="10" guides="1" tooltips="1" connect="1" arrows="1" fold="1" page="1" pageScale="1" pageWidth="850" pageHeight="1100" math="0" shadow="0">
      <root>
        <mxCell id="0" />
        <mxCell id="1" parent="0" />
        <mxCell id="piupa0PpMjbpXbgxNqik-6" value="Email / Password" style="rounded=1;whiteSpace=wrap;html=1;" parent="1" vertex="1">
          <mxGeometry x="-620" y="449" width="120" height="60" as="geometry" />
        </mxCell>
        <mxCell id="piupa0PpMjbpXbgxNqik-7" value="API GATEWAY" style="sketch=0;points=[[0,0,0],[0.25,0,0],[0.5,0,0],[0.75,0,0],[1,0,0],[0,1,0],[0.25,1,0],[0.5,1,0],[0.75,1,0],[1,1,0],[0,0.25,0],[0,0.5,0],[0,0.75,0],[1,0.25,0],[1,0.5,0],[1,0.75,0]];outlineConnect=0;fontColor=#232F3E;fillColor=#E7157B;strokeColor=#ffffff;dashed=0;verticalLabelPosition=bottom;verticalAlign=top;align=center;html=1;fontSize=12;fontStyle=0;aspect=fixed;shape=mxgraph.aws4.resourceIcon;resIcon=mxgraph.aws4.api_gateway;" parent="1" vertex="1">
          <mxGeometry x="-350" y="415" width="85" height="85" as="geometry" />
        </mxCell>
        <mxCell id="piupa0PpMjbpXbgxNqik-22" style="edgeStyle=orthogonalEdgeStyle;rounded=0;orthogonalLoop=1;jettySize=auto;html=1;exitX=1;exitY=0.5;exitDx=0;exitDy=0;entryX=0;entryY=0.75;entryDx=0;entryDy=0;entryPerimeter=0;" parent="1" source="piupa0PpMjbpXbgxNqik-6" target="piupa0PpMjbpXbgxNqik-7" edge="1">
          <mxGeometry relative="1" as="geometry" />
        </mxCell>
        <mxCell id="piupa0PpMjbpXbgxNqik-66" value="" style="endArrow=classic;html=1;rounded=0;entryX=0.5;entryY=0;entryDx=0;entryDy=0;" parent="1" edge="1">
          <mxGeometry width="50" height="50" relative="1" as="geometry">
            <mxPoint x="-780" y="370" as="sourcePoint" />
            <mxPoint x="-780" y="570" as="targetPoint" />
          </mxGeometry>
        </mxCell>
        <mxCell id="piupa0PpMjbpXbgxNqik-71" value="" style="endArrow=classic;html=1;rounded=0;entryX=0;entryY=0.5;entryDx=0;entryDy=0;exitX=0.769;exitY=0.946;exitDx=0;exitDy=0;exitPerimeter=0;" parent="1" target="piupa0PpMjbpXbgxNqik-6" edge="1" source="WxDecxYf9l_MywshOiuH-5">
          <mxGeometry width="50" height="50" relative="1" as="geometry">
            <mxPoint x="-740" y="380" as="sourcePoint" />
            <mxPoint x="-690" y="330" as="targetPoint" />
            <Array as="points">
              <mxPoint x="-740" y="479" />
            </Array>
          </mxGeometry>
        </mxCell>
        <mxCell id="3ecNAM6_Q_U1S4VKsc-8-4" value="&lt;font style=&quot;font-size: 32px;&quot;&gt;&lt;b&gt;Sign up Flow&lt;/b&gt;&lt;/font&gt;" style="text;html=1;align=center;verticalAlign=middle;resizable=0;points=[];autosize=1;strokeColor=none;fillColor=none;" parent="1" vertex="1">
          <mxGeometry x="-240" y="168" width="220" height="50" as="geometry" />
        </mxCell>
        <mxCell id="huBdwDgYe3-0XnvhPK7A-2" value="Amazon Simple Email Service" style="sketch=0;outlineConnect=0;fontColor=#232F3E;gradientColor=none;strokeColor=#ffffff;fillColor=#232F3E;dashed=0;verticalLabelPosition=middle;verticalAlign=bottom;align=center;html=1;whiteSpace=wrap;fontSize=10;fontStyle=1;spacing=3;shape=mxgraph.aws4.productIcon;prIcon=mxgraph.aws4.simple_email_service;" parent="1" vertex="1">
          <mxGeometry x="100" y="204" width="80" height="110" as="geometry" />
        </mxCell>
        <mxCell id="QF4mtHIM3YISxfC34R6q-1" value="DB" style="sketch=0;points=[[0,0,0],[0.25,0,0],[0.5,0,0],[0.75,0,0],[1,0,0],[0,1,0],[0.25,1,0],[0.5,1,0],[0.75,1,0],[1,1,0],[0,0.25,0],[0,0.5,0],[0,0.75,0],[1,0.25,0],[1,0.5,0],[1,0.75,0]];outlineConnect=0;fontColor=#232F3E;fillColor=#C925D1;strokeColor=#ffffff;dashed=0;verticalLabelPosition=bottom;verticalAlign=top;align=center;html=1;fontSize=12;fontStyle=0;aspect=fixed;shape=mxgraph.aws4.resourceIcon;resIcon=mxgraph.aws4.dynamodb;noLabel=0;" parent="1" vertex="1">
          <mxGeometry x="520" y="400" width="80" height="80" as="geometry" />
        </mxCell>
        <mxCell id="QF4mtHIM3YISxfC34R6q-3" value="" style="sketch=0;outlineConnect=0;fontColor=#232F3E;gradientColor=none;fillColor=#ED7100;strokeColor=none;dashed=0;verticalLabelPosition=bottom;verticalAlign=top;align=center;html=1;fontSize=12;fontStyle=0;aspect=fixed;pointerEvents=1;shape=mxgraph.aws4.lambda_function;" parent="1" vertex="1">
          <mxGeometry x="-60" y="320" width="60" height="60" as="geometry" />
        </mxCell>
        <mxCell id="QF4mtHIM3YISxfC34R6q-5" value="" style="endArrow=classic;html=1;rounded=0;" parent="1" target="QF4mtHIM3YISxfC34R6q-3" edge="1">
          <mxGeometry width="50" height="50" relative="1" as="geometry">
            <mxPoint x="-310" y="420" as="sourcePoint" />
            <mxPoint x="-260" y="370" as="targetPoint" />
            <Array as="points">
              <mxPoint x="-310" y="350" />
            </Array>
          </mxGeometry>
        </mxCell>
        <mxCell id="QF4mtHIM3YISxfC34R6q-6" value="" style="endArrow=classic;html=1;rounded=0;" parent="1" target="huBdwDgYe3-0XnvhPK7A-2" edge="1">
          <mxGeometry width="50" height="50" relative="1" as="geometry">
            <mxPoint x="-30" y="320" as="sourcePoint" />
            <mxPoint x="20" y="270" as="targetPoint" />
            <Array as="points">
              <mxPoint x="-30" y="260" />
            </Array>
          </mxGeometry>
        </mxCell>
        <mxCell id="QF4mtHIM3YISxfC34R6q-7" value="&lt;font style=&quot;font-size: 13px;&quot;&gt;Email Verification&lt;/font&gt;" style="text;html=1;align=center;verticalAlign=middle;whiteSpace=wrap;rounded=0;" parent="1" vertex="1">
          <mxGeometry x="20" y="335" width="60" height="30" as="geometry" />
        </mxCell>
        <mxCell id="QF4mtHIM3YISxfC34R6q-8" value="" style="sketch=0;outlineConnect=0;fontColor=#232F3E;gradientColor=none;fillColor=#ED7100;strokeColor=none;dashed=0;verticalLabelPosition=bottom;verticalAlign=top;align=center;html=1;fontSize=12;fontStyle=0;aspect=fixed;pointerEvents=1;shape=mxgraph.aws4.lambda_function;" parent="1" vertex="1">
          <mxGeometry x="-60" y="440" width="60" height="60" as="geometry" />
        </mxCell>
        <mxCell id="QF4mtHIM3YISxfC34R6q-9" value="" style="sketch=0;outlineConnect=0;fontColor=#232F3E;gradientColor=none;fillColor=#ED7100;strokeColor=none;dashed=0;verticalLabelPosition=bottom;verticalAlign=top;align=center;html=1;fontSize=12;fontStyle=0;aspect=fixed;pointerEvents=1;shape=mxgraph.aws4.lambda_function;" parent="1" vertex="1">
          <mxGeometry x="-60" y="560" width="60" height="60" as="geometry" />
        </mxCell>
        <mxCell id="QF4mtHIM3YISxfC34R6q-10" value="" style="sketch=0;outlineConnect=0;fontColor=#232F3E;gradientColor=none;fillColor=#ED7100;strokeColor=none;dashed=0;verticalLabelPosition=bottom;verticalAlign=top;align=center;html=1;fontSize=12;fontStyle=0;aspect=fixed;pointerEvents=1;shape=mxgraph.aws4.lambda_function;" parent="1" vertex="1">
          <mxGeometry x="-60" y="680" width="60" height="60" as="geometry" />
        </mxCell>
        <mxCell id="QF4mtHIM3YISxfC34R6q-11" value="&lt;font style=&quot;font-size: 13px;&quot;&gt;Email / OTP Verification&lt;/font&gt;" style="text;html=1;align=center;verticalAlign=middle;whiteSpace=wrap;rounded=0;" parent="1" vertex="1">
          <mxGeometry x="20" y="455" width="60" height="15" as="geometry" />
        </mxCell>
        <mxCell id="QF4mtHIM3YISxfC34R6q-12" value="&lt;font style=&quot;font-size: 13px;&quot;&gt;user name verification&lt;/font&gt;" style="text;html=1;align=center;verticalAlign=middle;whiteSpace=wrap;rounded=0;" parent="1" vertex="1">
          <mxGeometry x="20" y="575" width="60" height="30" as="geometry" />
        </mxCell>
        <mxCell id="QF4mtHIM3YISxfC34R6q-14" value="&lt;font style=&quot;font-size: 13px;&quot;&gt;Sign up&lt;/font&gt;" style="text;html=1;align=center;verticalAlign=middle;whiteSpace=wrap;rounded=0;" parent="1" vertex="1">
          <mxGeometry x="20" y="680" width="60" height="30" as="geometry" />
        </mxCell>
        <mxCell id="QF4mtHIM3YISxfC34R6q-15" value="" style="endArrow=none;html=1;rounded=0;" parent="1" edge="1">
          <mxGeometry width="50" height="50" relative="1" as="geometry">
            <mxPoint x="400" y="710" as="sourcePoint" />
            <mxPoint x="400" y="350" as="targetPoint" />
          </mxGeometry>
        </mxCell>
        <mxCell id="QF4mtHIM3YISxfC34R6q-22" value="" style="endArrow=classic;html=1;rounded=0;entryX=0.028;entryY=0.666;entryDx=0;entryDy=0;entryPerimeter=0;" parent="1" target="QF4mtHIM3YISxfC34R6q-8" edge="1">
          <mxGeometry width="50" height="50" relative="1" as="geometry">
            <mxPoint x="-260" y="480" as="sourcePoint" />
            <mxPoint x="-210" y="430" as="targetPoint" />
          </mxGeometry>
        </mxCell>
        <mxCell id="QF4mtHIM3YISxfC34R6q-25" value="" style="endArrow=classic;html=1;rounded=0;" parent="1" target="QF4mtHIM3YISxfC34R6q-9" edge="1">
          <mxGeometry width="50" height="50" relative="1" as="geometry">
            <mxPoint x="-310" y="500" as="sourcePoint" />
            <mxPoint x="-260" y="450" as="targetPoint" />
            <Array as="points">
              <mxPoint x="-310" y="590" />
            </Array>
          </mxGeometry>
        </mxCell>
        <mxCell id="QF4mtHIM3YISxfC34R6q-26" value="" style="endArrow=classic;html=1;rounded=0;" parent="1" target="QF4mtHIM3YISxfC34R6q-10" edge="1">
          <mxGeometry width="50" height="50" relative="1" as="geometry">
            <mxPoint x="-310" y="500" as="sourcePoint" />
            <mxPoint x="-260" y="450" as="targetPoint" />
            <Array as="points">
              <mxPoint x="-310" y="710" />
            </Array>
          </mxGeometry>
        </mxCell>
        <mxCell id="QF4mtHIM3YISxfC34R6q-27" value="" style="endArrow=classic;html=1;rounded=0;" parent="1" edge="1">
          <mxGeometry width="50" height="50" relative="1" as="geometry">
            <mxPoint y="350" as="sourcePoint" />
            <mxPoint x="400" y="350" as="targetPoint" />
          </mxGeometry>
        </mxCell>
        <mxCell id="QF4mtHIM3YISxfC34R6q-29" value="" style="endArrow=classic;html=1;rounded=0;" parent="1" edge="1">
          <mxGeometry width="50" height="50" relative="1" as="geometry">
            <mxPoint y="470" as="sourcePoint" />
            <mxPoint x="400" y="470" as="targetPoint" />
          </mxGeometry>
        </mxCell>
        <mxCell id="QF4mtHIM3YISxfC34R6q-30" value="" style="endArrow=classic;html=1;rounded=0;" parent="1" edge="1">
          <mxGeometry width="50" height="50" relative="1" as="geometry">
            <mxPoint y="590" as="sourcePoint" />
            <mxPoint x="400" y="590" as="targetPoint" />
          </mxGeometry>
        </mxCell>
        <mxCell id="QF4mtHIM3YISxfC34R6q-31" value="" style="endArrow=classic;html=1;rounded=0;" parent="1" edge="1">
          <mxGeometry width="50" height="50" relative="1" as="geometry">
            <mxPoint y="710" as="sourcePoint" />
            <mxPoint x="400" y="710" as="targetPoint" />
          </mxGeometry>
        </mxCell>
        <mxCell id="WxDecxYf9l_MywshOiuH-2" value="Secrets Manager" style="sketch=0;points=[[0,0,0],[0.25,0,0],[0.5,0,0],[0.75,0,0],[1,0,0],[0,1,0],[0.25,1,0],[0.5,1,0],[0.75,1,0],[1,1,0],[0,0.25,0],[0,0.5,0],[0,0.75,0],[1,0.25,0],[1,0.5,0],[1,0.75,0]];outlineConnect=0;fontColor=#232F3E;fillColor=#DD344C;strokeColor=#ffffff;dashed=0;verticalLabelPosition=bottom;verticalAlign=top;align=center;html=1;fontSize=12;fontStyle=0;aspect=fixed;shape=mxgraph.aws4.resourceIcon;resIcon=mxgraph.aws4.secrets_manager;" vertex="1" parent="1">
          <mxGeometry x="522" y="560" width="78" height="78" as="geometry" />
        </mxCell>
        <mxCell id="WxDecxYf9l_MywshOiuH-5" value="" style="sketch=0;outlineConnect=0;fontColor=#232F3E;gradientColor=none;fillColor=#232F3D;strokeColor=none;dashed=0;verticalLabelPosition=bottom;verticalAlign=top;align=center;html=1;fontSize=12;fontStyle=0;aspect=fixed;pointerEvents=1;shape=mxgraph.aws4.client;" vertex="1" parent="1">
          <mxGeometry x="-798" y="289" width="78" height="76" as="geometry" />
        </mxCell>
        <mxCell id="WxDecxYf9l_MywshOiuH-6" value="" style="sketch=0;points=[[0,0,0],[0.25,0,0],[0.5,0,0],[0.75,0,0],[1,0,0],[0,1,0],[0.25,1,0],[0.5,1,0],[0.75,1,0],[1,1,0],[0,0.25,0],[0,0.5,0],[0,0.75,0],[1,0.25,0],[1,0.5,0],[1,0.75,0]];outlineConnect=0;fontColor=#232F3E;fillColor=#7AA116;strokeColor=#ffffff;dashed=0;verticalLabelPosition=bottom;verticalAlign=top;align=center;html=1;fontSize=12;fontStyle=0;aspect=fixed;shape=mxgraph.aws4.resourceIcon;resIcon=mxgraph.aws4.s3;" vertex="1" parent="1">
          <mxGeometry x="-820" y="575" width="78" height="78" as="geometry" />
        </mxCell>
        <mxCell id="WxDecxYf9l_MywshOiuH-7" value="&lt;font style=&quot;font-size: 14px;&quot;&gt;Client&lt;/font&gt;" style="text;html=1;align=center;verticalAlign=middle;whiteSpace=wrap;rounded=0;" vertex="1" parent="1">
          <mxGeometry x="-789" y="260" width="60" height="30" as="geometry" />
        </mxCell>
        <mxCell id="WxDecxYf9l_MywshOiuH-8" value="APP" style="text;html=1;align=center;verticalAlign=middle;whiteSpace=wrap;rounded=0;" vertex="1" parent="1">
          <mxGeometry x="-811" y="653" width="60" height="30" as="geometry" />
        </mxCell>
        <mxCell id="WxDecxYf9l_MywshOiuH-9" value="" style="endArrow=classic;html=1;rounded=0;entryX=0;entryY=0.5;entryDx=0;entryDy=0;entryPerimeter=0;" edge="1" parent="1" target="QF4mtHIM3YISxfC34R6q-1">
          <mxGeometry width="50" height="50" relative="1" as="geometry">
            <mxPoint x="400" y="440" as="sourcePoint" />
            <mxPoint x="450" y="390" as="targetPoint" />
          </mxGeometry>
        </mxCell>
        <mxCell id="WxDecxYf9l_MywshOiuH-10" value="" style="endArrow=classic;html=1;rounded=0;" edge="1" parent="1">
          <mxGeometry width="50" height="50" relative="1" as="geometry">
            <mxPoint x="400" y="613.41" as="sourcePoint" />
            <mxPoint x="520" y="613.41" as="targetPoint" />
          </mxGeometry>
        </mxCell>
        <mxCell id="WxDecxYf9l_MywshOiuH-11" value="&lt;b&gt;Secrets&lt;/b&gt;" style="edgeLabel;html=1;align=center;verticalAlign=middle;resizable=0;points=[];" vertex="1" connectable="0" parent="WxDecxYf9l_MywshOiuH-10">
          <mxGeometry x="-0.1461" y="-2" relative="1" as="geometry">
            <mxPoint x="-1" as="offset" />
          </mxGeometry>
        </mxCell>
      </root>
    </mxGraphModel>
  </diagram>
</mxfile>
